<svg id="visual" viewBox="0 0 960 540" width="960" height="540" xmlns="http://www.w3.org/2000/svg" xmlns:xlink="http://www.w3.org/1999/xlink" version="1.1"><rect x="0" y="0" width="960" height="540" fill="#8bade8"></rect><defs><linearGradient id="grad1_0" x1="43.8%" y1="0%" x2="100%" y2="100%"><stop offset="14.444444444444446%" stop-color="#8bade8" stop-opacity="1"></stop><stop offset="85.55555555555554%" stop-color="#8bade8" stop-opacity="1"></stop></linearGradient></defs><defs><linearGradient id="grad2_0" x1="0%" y1="0%" x2="56.3%" y2="100%"><stop offset="14.444444444444446%" stop-color="#8bade8" stop-opacity="1"></stop><stop offset="85.55555555555554%" stop-color="#8bade8" stop-opacity="1"></stop></linearGradient></defs><g transform="translate(960, 0)"><path d="M0 324C-19.6 299.5 -39.2 275.1 -61.2 268.1C-83.2 261.1 -107.4 271.6 -129.3 268.5C-151.1 265.3 -170.5 248.5 -183.9 230.6C-197.3 212.8 -204.7 193.9 -226.7 180.8C-248.8 167.7 -285.5 160.4 -291.9 140.6C-298.4 120.7 -274.6 88.3 -274.9 62.8C-275.2 37.2 -299.6 18.6 -324 0L0 0Z" fill="#5fe351"></path></g><g transform="translate(0, 540)"><path d="M0 -324C16.4 -289.8 32.8 -255.5 57.6 -252.5C82.5 -249.5 115.9 -277.7 127.6 -264.9C139.2 -252.1 129.2 -198.4 147.1 -184.5C165 -170.7 210.9 -196.7 247.1 -197C283.2 -197.3 309.8 -171.8 291.9 -140.6C274 -109.3 211.7 -72.2 209.6 -47.8C207.5 -23.4 265.8 -11.7 324 0L0 0Z" fill="#5fe351"></path></g></svg>